<svg width="74" height="74" viewBox="0 0 74 74" fill="none" xmlns="http://www.w3.org/2000/svg">
<rect width="74" height="74" rx="18" fill="white"/>
<g clip-path="url(#clip0_909_1449)">
<path d="M59 69C59.5304 69 60.0391 68.7893 60.4142 68.4142C60.7893 68.0391 61 67.5304 61 67V13C61 12.4696 60.7893 11.9609 60.4142 11.5858C60.0391 11.2107 59.5304 11 59 11H49.236L46.789 6.105C46.6228 5.77287 46.3674 5.49358 46.0514 5.29842C45.7355 5.10325 45.3714 4.99992 45 5H29C28.6286 4.99992 28.2645 5.10325 27.9486 5.29842C27.6326 5.49358 27.3772 5.77287 27.211 6.105L24.764 11H15C14.4696 11 13.9609 11.2107 13.5858 11.5858C13.2107 11.9609 13 12.4696 13 13V67C13 67.5304 13.2107 68.0391 13.5858 68.4142C13.9609 68.7893 14.4696 69 15 69H59ZM30.236 9H43.763L47.763 17H26.236L30.236 9ZM17 15H22.764L21.211 18.105C21.0587 18.41 20.9868 18.7488 21.0022 19.0894C21.0176 19.4299 21.1198 19.7609 21.299 20.0509C21.4782 20.3409 21.7285 20.5803 22.0262 20.7464C22.3239 20.9125 22.6591 20.9998 23 21H51.02C51.3837 21 51.7405 20.9009 52.0521 20.7132C52.3636 20.5255 52.6181 20.2564 52.7881 19.9349C52.9581 19.6134 53.0373 19.2516 53.017 18.8885C52.9967 18.5253 52.8778 18.1746 52.673 17.874L51.236 15H57V65H17V15Z" fill="black"/>
<path d="M43.586 33.5859L35 42.1709L30.414 37.5859C30.2295 37.3949 30.0089 37.2425 29.7648 37.1377C29.5208 37.0329 29.2584 36.9777 28.9928 36.9754C28.7273 36.9731 28.4639 37.0237 28.2181 37.1243C27.9723 37.2248 27.749 37.3733 27.5613 37.5611C27.3735 37.7489 27.225 37.9722 27.1244 38.218C27.0238 38.4638 26.9732 38.7272 26.9755 38.9927C26.9778 39.2583 27.033 39.5207 27.1378 39.7647C27.2427 40.0087 27.395 40.2294 27.586 40.4139L33.586 46.4139C33.977 46.8049 34.488 46.9999 35 46.9999C35.512 46.9999 36.023 46.8049 36.414 46.4139L46.414 36.4139C46.6051 36.2294 46.7574 36.0087 46.8622 35.7647C46.9671 35.5207 47.0222 35.2583 47.0245 34.9927C47.0269 34.7272 46.9762 34.4638 46.8757 34.218C46.7751 33.9722 46.6266 33.7489 46.4388 33.5611C46.251 33.3733 46.0277 33.2248 45.7819 33.1243C45.5362 33.0237 45.2728 32.9731 45.0072 32.9754C44.7417 32.9777 44.4792 33.0329 44.2352 33.1377C43.9912 33.2425 43.7705 33.3949 43.586 33.5859Z" fill="black"/>
</g>
<defs>
<clipPath id="clip0_909_1449">
<rect width="64" height="64" fill="white" transform="translate(5 5)"/>
</clipPath>
</defs>
</svg>
